# xmcd CD database file
#
# Track frame offsets:
#	150
#	22110
#	38587
#	56715
#	78599
#
# Disc length: 1264 seconds
#
# Revision: 3
# Processed by: cddbd v1.5.2PL0 Copyright (c) Steve Scherf et al.
# Submitted via: CDex 1.70beta2
#
DISCID=3904ee05
DTITLE=倖田來未 - 愛のうた
DYEAR=2007
DGENRE=J-Pop
TTITLE0=愛のうた
TTITLE1=Come Over
TTITLE2=愛のうた (URBAN KISS Version)
TTITLE3=愛のうた (Instrumental)
TTITLE4=Come Over (Instrumental)
EXTD=YEAR: 2007
EXTT0=
EXTT1=
EXTT2=
EXTT3=
EXTT4=
PLAYORDER=
